<?xml version="1.0" encoding="UTF-8" standalone="no"?>
<svg
   xmlns:dc="http://purl.org/dc/elements/1.1/"
   xmlns:cc="http://creativecommons.org/ns#"
   xmlns:rdf="http://www.w3.org/1999/02/22-rdf-syntax-ns#"
   xmlns:svg="http://www.w3.org/2000/svg"
   xmlns="http://www.w3.org/2000/svg"
   xmlns:sodipodi="http://sodipodi.sourceforge.net/DTD/sodipodi-0.dtd"
   xmlns:inkscape="http://www.inkscape.org/namespaces/inkscape"
   width="489.06"
   height="740.53003"
   viewBox="0 0 721.48699 1074.8275"
   version="1.1"
   id="svg3067"
   inkscape:version="0.48.4 r9939"
   sodipodi:docname="soccer_field.svg"
   style="stroke:#ffffff">
  <metadata
     id="metadata3109">
    <rdf:RDF>
      <cc:Work
         rdf:about="">
        <dc:format>image/svg+xml</dc:format>
        <dc:type
           rdf:resource="http://purl.org/dc/dcmitype/StillImage" />
        <dc:title />
      </cc:Work>
    </rdf:RDF>
  </metadata>
  <defs
     id="defs3107" />
  <sodipodi:namedview
     pagecolor="#ffffff"
     bordercolor="#666666"
     borderopacity="1"
     objecttolerance="10"
     gridtolerance="10"
     guidetolerance="10"
     inkscape:pageopacity="0"
     inkscape:pageshadow="2"
     inkscape:window-width="1167"
     inkscape:window-height="841"
     id="namedview3105"
     showgrid="false"
     inkscape:zoom="1.2084242"
     inkscape:cx="291.18885"
     inkscape:cy="652.44571"
     inkscape:window-x="77"
     inkscape:window-y="133"
     inkscape:window-maximized="0"
     inkscape:current-layer="svg3067"
     width="496.06px"
     showborder="true" />
  <!--图纸区-->
  <rect
     x="-1083.239"
     y="1.3459177"
     width="1091.4271"
     height="720.02582"
     id="rect3069"
     transform="matrix(0,-1,1,0,0,0)"
     style="fill:#008000;stroke-width:0.97421819" />
  <!--球场框和中线-->
  <path
     d="m 21.358811,537.52724 0,525.00006 680.000009,0 0,-1049.999883 -680.000009,0 0,524.999823 680.000009,0 z"
     id="path3071"
     inkscape:connector-curvature="0"
     style="fill:#008000;stroke:#ffffff;stroke-width:2" />
  <!--中线-->
  <circle
     cx="575"
     cy="360"
     r="91.5"
     id="circle3073"
     sodipodi:cx="575"
     sodipodi:cy="360"
     sodipodi:rx="91.5"
     sodipodi:ry="91.5"
     style="fill-opacity:0;stroke:#ffffff;stroke-width:2"
     transform="translate(-213.64118,177.52724)" />
  <circle
     cx="575"
     cy="360"
     r="2"
     id="circle3075"
     sodipodi:cx="575"
     sodipodi:cy="360"
     sodipodi:rx="2"
     sodipodi:ry="2"
     style="fill:#ffffff;stroke:#ffffff"
     transform="translate(-213.64118,177.52724)" />
  <!--罚球点-->
  <circle
     cx="160"
     cy="360"
     r="2"
     id="circle3077"
     sodipodi:cx="160"
     sodipodi:cy="360"
     sodipodi:rx="2"
     sodipodi:ry="2"
     inkscape:transform-center-x="6.6201923"
     inkscape:transform-center-y="280.53063"
     style="fill:#ffffff;stroke:#ffffff"
     transform="matrix(0,-1,1,0,0.21231113,1116.264)" />
  <circle
     cx="990"
     cy="360"
     r="2"
     id="circle3079"
     sodipodi:cx="990"
     sodipodi:cy="360"
     sodipodi:rx="2"
     sodipodi:ry="2"
     inkscape:transform-center-x="-1.6946224"
     inkscape:transform-center-y="-281.35815"
     style="fill:#ffffff;stroke:#ffffff"
     transform="matrix(0,-1,1,0,-1.0987289,1113.6154)" />
  <!--球门-->
  <path
     d="m 323.86817,1061.6366 0,10 72.2,0 0,-10 z"
     id="path3081"
     inkscape:connector-curvature="0"
     style="fill-opacity:0;stroke:#ffffff;stroke-width:2"
     inkscape:transform-center-y="358.31789" />
  <path
     d="m 324.20787,11.976467 0,-9.9999973 72.2,0 0,9.9999973 z"
     id="path3083"
     inkscape:connector-curvature="0"
     style="fill-opacity:0;stroke:#ffffff;stroke-width:2"
     inkscape:transform-center-y="-359.97293" />
  <!--球门区-->
  <path
     d="m 269.62719,1062.3956 0,-55 182.2,0 0,55 z"
     id="path3085"
     inkscape:connector-curvature="0"
     style="fill-opacity:0;stroke:#ffffff;stroke-width:2"
     inkscape:transform-center-y="336.80226" />
  <path
     d="m 268.43794,12.427347 0,53.80098 182.2218,0 0,-53.80098 z"
     id="path3087"
     inkscape:connector-curvature="0"
     style="fill-opacity:0;stroke:#ffffff;stroke-width:1.97819817"
     inkscape:transform-center-y="-331.07891" />
  <!--禁区 -->
  <path
     d="m 157.24926,1061.7474 0,-165.00001 402.2,0 0,165.00001 z"
     id="path3089"
     inkscape:connector-curvature="0"
     style="fill-opacity:0;stroke:#ffffff;stroke-width:2"
     inkscape:transform-center-y="297.90863" />
  <path
     d="m 160.82309,12.370877 0,163.786363 402.20734,0 0,-163.786363 z"
     id="path3091"
     inkscape:connector-curvature="0"
     style="fill-opacity:0;stroke:#ffffff;stroke-width:1.99265039"
     inkscape:transform-center-y="-297.3606" />
  <path
     d="m 287.08899,896.38239 a 91.5,91.5 0 0 1 146.25,0 z"
     id="path3093"
     inkscape:connector-curvature="0"
     style="fill:#008000;stroke:#ffffff;stroke-width:2"
     inkscape:transform-center-y="230.87919" />
  <path
     d="m 286.93704,176.23046 a 91.5,91.5 0 0 0 146.25,0 z"
     id="path3095"
     inkscape:connector-curvature="0"
     style="fill:#008000;stroke:#ffffff;stroke-width:2"
     inkscape:transform-center-y="-232.53424" />
  <!--角球弧-->
  <path
     d="m 31.921441,1062.092 a 10,10 0 0 0 -10,-10 l 0,10 z"
     id="path3097"
     inkscape:connector-curvature="0"
     inkscape:transform-center-x="226.74157"
     inkscape:transform-center-y="351.69769"
     style="fill-opacity:0;stroke:#ffffff;stroke-width:2" />
  <path
     d="m 700.92358,1051.8691 a 10,10 0 0 0 -10,10 l 10,0 z"
     id="path3099"
     inkscape:connector-curvature="0"
     inkscape:transform-center-x="-226.74157"
     inkscape:transform-center-y="351.69769"
     style="fill-opacity:0;stroke:#ffffff;stroke-width:2" />
  <path
     d="m 690.79618,12.962666 a 10,10 0 0 0 10,9.999998 l 0,-9.999998 z"
     id="path3101"
     inkscape:connector-curvature="0"
     inkscape:transform-center-x="-227.56909"
     inkscape:transform-center-y="-353.35274"
     style="fill-opacity:0;stroke:#ffffff;stroke-width:2" />
  <path
     d="m 21.794061,23.185594 a 10,10 0 0 0 10,-9.999998 l -10,0 z"
     id="path3103"
     inkscape:connector-curvature="0"
     inkscape:transform-center-x="226.74157"
     inkscape:transform-center-y="-353.35274"
     style="fill-opacity:0;stroke:#ffffff;stroke-width:2" />
</svg>
